<svg version="1.2" baseProfile="tiny-ps" xmlns="http://www.w3.org/2000/svg" viewBox="0 0 448 512" width="448" height="512">
	<title>bars-solid-svg</title>
	<style>
		tspan { white-space:pre }
		.s0 { fill: #1e6923 } 
	</style>
	<path id="Layer" class="s0" d="m0 96c0-17.67 14.33-32 32-32h384c17.7 0 32 14.33 32 32c0 17.7-14.3 32-32 32h-384c-17.67 0-32-14.3-32-32zm0 160c0-17.7 14.33-32 32-32h384c17.7 0 32 14.3 32 32c0 17.7-14.3 32-32 32h-384c-17.67 0-32-14.3-32-32zm416 192h-384c-17.67 0-32-14.3-32-32c0-17.7 14.33-32 32-32h384c17.7 0 32 14.3 32 32c0 17.7-14.3 32-32 32z" />
</svg>