<svg version="1.2" baseProfile="tiny-ps" xmlns="http://www.w3.org/2000/svg" viewBox="0 0 512 512" width="512" height="512">
	<title>envelope-regular-svg</title>
	<style>
		tspan { white-space:pre }
		.s0 { fill: #1e6923 } 
	</style>
	<path id="Layer" fill-rule="evenodd" class="s0" d="m512 128v256c0 35.35-28.65 64-64 64h-384c-35.35 0-64-28.65-64-64v-256c0-35.35 28.65-64 64-64h384c35.3 0 64 28.65 64 64zm-464 0v22.2l166.73 138.08c23.13 19.25 59.28 19.26 82.47-0.02l166.8-138.1v-22.16c0-8.82-7.18-16-16-16h-384c-8.82 0-16 7.2-16 16zm416 256v-171.3l-136.03 113.32c-20.22 16.79-45.77 25.98-71.97 25.98c-26.2 0-51.7-9.2-71.9-25.9l-136.1-113.4v171.3c0 8.82 7.18 16 16 16h384c8.8 0 16-7.2 16-16z" />
</svg>