<svg version="1.2" baseProfile="tiny-ps" xmlns="http://www.w3.org/2000/svg" viewBox="0 0 496 512" width="496" height="512">
	<title>telegram-brands-svg</title>
	<style>
		tspan { white-space:pre }
		.s0 { fill: #1e6923 } 
	</style>
	<path id="Layer" fill-rule="evenodd" class="s0" d="m496 256c0 136.1-111 248-248 248c-137 0-248-111-248-248c0-137 111-248 248-248c136.1 0 248 111.9 248 248zm-133.9-79.3c0.05-0.82 0.09-1.63 0.09-2.45c0.01-0.82-0.01-1.64-0.04-2.45c-0.04-0.82-0.1-1.63-0.18-2.45c-0.08-0.81-0.19-1.62-0.32-2.43c-0.07-0.64-0.2-1.28-0.4-1.9c-0.19-0.62-0.44-1.22-0.74-1.79c-0.3-0.57-0.66-1.12-1.06-1.62c-0.4-0.51-0.85-0.98-1.34-1.4c-2.97-2.41-7.56-2.92-9.61-2.88c-9.33 0.17-23.64 5.14-92.51 33.79c-24.13 10.03-72.33 30.8-144.6 62.3c-11.74 4.67-17.89 9.23-18.45 13.7c-1.08 8.57 11.27 11.24 26.8 16.29c12.66 4.12 29.7 8.93 38.55 9.12c8.03 0.17 16.99-3.14 26.89-9.93c67.54-45.6 102.41-68.64 104.6-69.14c1.55-0.35 3.68-0.78 5.13 0.5c1.45 1.28 1.31 3.73 1.15 4.38c-1.22 5.24-64.68 62.96-68.33 66.75c-13.95 14.5-29.83 23.36-5.34 39.5c21.19 13.96 33.52 22.87 55.35 37.18c13.95 9.14 24.89 19.99 39.29 18.66c6.63-0.6 13.47-6.84 16.95-25.42c8.22-43.9 24.37-139.08 28.1-178.3z" />
</svg>